HIERARCHY
ROOT joint_Root
{
	OFFSET 0.0 0.0 0.0
	CHANNELS 6 Xposition Yposition Zposition Zrotation Xrotation Yrotation 
	JOINT Hips
	{
		OFFSET -17.1583 93.1646 452.98
		CHANNELS 6 Xposition Yposition Zposition Zrotation Xrotation Yrotation 
		JOINT Spine
		{
			OFFSET 15.7357 0.0 0.0
			CHANNELS 6 Xposition Yposition Zposition Zrotation Xrotation Yrotation 
			JOINT Chest
			{
				OFFSET 8.98455 -0.406207 0.0
				CHANNELS 6 Xposition Yposition Zposition Zrotation Xrotation Yrotation 
				JOINT Neck
				{
					OFFSET 16.3773 0.0 0.0
					CHANNELS 6 Xposition Yposition Zposition Zrotation Xrotation Yrotation 
					JOINT Head
					{
						OFFSET 6.45672 0.0 0.0
						CHANNELS 6 Xposition Yposition Zposition Zrotation Xrotation Yrotation 
						End Site
						{
							OFFSET 0.0 0.0 0.0
						}
					}
				}
				JOINT Shoulder_L
				{
					OFFSET 12.9942 -0.242716 4.98039
					CHANNELS 6 Xposition Yposition Zposition Zrotation Xrotation Yrotation 
					JOINT UpperArm_L
					{
						OFFSET 5.34809 0.0 0.0
						CHANNELS 6 Xposition Yposition Zposition Zrotation Xrotation Yrotation 
						JOINT LowerArm_L
						{
							OFFSET 24.3286 1.87007e-05 0.0
							CHANNELS 6 Xposition Yposition Zposition Zrotation Xrotation Yrotation 
							JOINT Hand_L
							{
								OFFSET 22.2916 0.0 0.0
								CHANNELS 6 Xposition Yposition Zposition Zrotation Xrotation Yrotation 
								End Site
								{
									OFFSET 0.0 0.0 0.0
								}
							}
						}
					}
				}
				JOINT Shoulder_R
				{
					OFFSET 12.9945 -0.242716 -4.98039
					CHANNELS 6 Xposition Yposition Zposition Zrotation Xrotation Yrotation 
					JOINT UpperArm_R
					{
						OFFSET -5.34813 0.0 0.0
						CHANNELS 6 Xposition Yposition Zposition Zrotation Xrotation Yrotation 
						JOINT LowerArm_R
						{
							OFFSET -24.3289 0.000322201 0.0
							CHANNELS 6 Xposition Yposition Zposition Zrotation Xrotation Yrotation 
							JOINT Hand_R
							{
								OFFSET -22.2915 -0.000108084 0.0
								CHANNELS 6 Xposition Yposition Zposition Zrotation Xrotation Yrotation 
								End Site
								{
									OFFSET 0.0 0.0 0.0
								}
							}
						}
					}
				}
			}
		}
		JOINT UpperLeg_L
		{
			OFFSET -2.19248 -6.46944 0.0
			CHANNELS 6 Xposition Yposition Zposition Zrotation Xrotation Yrotation 
			JOINT LowerLeg_L
			{
				OFFSET 39.0811 0.0 -1.23785e-05
				CHANNELS 6 Xposition Yposition Zposition Zrotation Xrotation Yrotation 
				JOINT Foot_L
				{
					OFFSET 40.9854 0.0 -1.26872e-05
					CHANNELS 6 Xposition Yposition Zposition Zrotation Xrotation Yrotation 
					JOINT Toes_L
					{
						OFFSET 11.7543 0.0 0.0
						CHANNELS 6 Xposition Yposition Zposition Zrotation Xrotation Yrotation 
						End Site
						{
							OFFSET 0.0 0.0 0.0
						}
					}
				}
			}
		}
		JOINT UpperLeg_R
		{
			OFFSET -2.19251 6.46944 0.0
			CHANNELS 6 Xposition Yposition Zposition Zrotation Xrotation Yrotation 
			JOINT LowerLeg_R
			{
				OFFSET -39.0811 -0.00228153 -0.0401928
				CHANNELS 6 Xposition Yposition Zposition Zrotation Xrotation Yrotation 
				JOINT Foot_R
				{
					OFFSET -40.9854 0.0 0.0
					CHANNELS 6 Xposition Yposition Zposition Zrotation Xrotation Yrotation 
					JOINT Toes_R
					{
						OFFSET -11.7543 0.0 0.0
						CHANNELS 6 Xposition Yposition Zposition Zrotation Xrotation Yrotation 
						End Site
						{
							OFFSET 0.0 0.0 0.0
						}
					}
				}
			}
		}
	}
}
MOTION
Frames:	5
Frame Time:	0.0333333
0.000000 0.000000 0.000000 0.000000 0.000000 -0.000000 2.686740 92.685700 1.715150 89.466800 2.687780 4.247650 15.735700 0.000005 -0.000001 64.308600 87.181500 -57.668000 8.984550 -0.406207 -0.000000 -2.477020 -3.034980 13.218300 16.377300 -0.000001 -0.000001 1.703640 0.141156 6.190300 6.456720 -0.000001 -0.000000 -12.969700 -9.118230 23.459300 12.994200 -0.242716 4.980390 -87.983100 -4.002790 -63.229800 5.348090 -0.000007 -0.000001 -57.238400 -53.987600 -106.523000 24.328600 0.000019 0.000005 0.881767 18.027000 -2.847040 22.291600 -0.000001 0.000005 43.777500 4.524770 16.188600 12.994500 -0.242716 -4.980390 87.997800 5.623310 -70.365500 -5.348130 -0.000001 -0.000004 -60.620200 11.062700 -8.607610 -24.328900 0.000322 -0.000009 1.741160 6.361380 -15.350900 -22.291500 -0.000108 -0.000004 6.223690 5.265500 1.019410 -2.192480 -6.469440 -0.000000 -175.779000 -9.926400 2.456280 39.081100 -0.000007 -0.000012 0.047414 -0.149269 17.622200 40.985400 -0.000006 -0.000013 2.862090 18.137500 -70.603400 11.754300 -0.000000 0.000003 -0.000979 0.182737 -9.164110 -2.192510 6.469440 -0.000001 172.430000 10.579700 -174.182000 -39.081100 -0.002282 -0.040193 0.000443 0.012858 12.673300 -40.985400 0.000008 0.000006 -8.195310 6.991680 -68.089200 -11.754300 -0.000006 -0.000006 -0.011511 0.282268 -5.102350
0.000000 0.000000 0.000000 0.000000 0.000000 -0.000000 2.723200 92.689000 1.684840 89.479400 2.749100 4.228100 15.735700 0.000005 -0.000001 64.455800 87.172200 -57.843300 8.984550 -0.406207 -0.000000 -2.455500 -3.026220 13.162900 16.377300 -0.000001 -0.000001 1.946510 0.146555 6.220500 6.456720 -0.000001 -0.000000 -12.983500 -9.121820 23.360000 12.994200 -0.242716 4.980390 -87.991700 -3.967450 -63.123500 5.348090 -0.000007 -0.000001 -57.477300 -54.203500 -106.656000 24.328600 0.000019 0.000005 0.894546 17.956700 -2.899150 22.291600 -0.000001 0.000005 43.613400 4.534410 16.027500 12.994500 -0.242716 -4.980390 88.007000 5.576660 -70.298100 -5.348130 -0.000001 -0.000004 -60.846500 11.029600 -8.313160 -24.328900 0.000322 -0.000009 1.736870 6.467650 -15.075700 -22.291500 -0.000108 -0.000004 6.341360 5.258570 1.205270 -2.192480 -6.469440 -0.000000 -175.822000 -9.912650 2.404330 39.081100 -0.000007 -0.000012 0.047613 -0.149822 17.630100 40.985400 -0.000006 -0.000013 2.887680 18.157000 -70.589900 11.754300 -0.000000 0.000003 -0.001027 0.183419 -9.136400 -2.192510 6.469440 -0.000001 172.386000 10.657400 -174.190000 -39.081100 -0.002282 -0.040193 0.000435 0.012928 12.639600 -40.985400 0.000008 0.000006 -8.216250 7.009430 -68.069400 -11.754300 -0.000006 -0.000006 -0.011834 0.284533 -5.009620
0.000000 0.000000 0.000000 0.000000 0.000000 -0.000000 2.760190 92.684400 1.650770 89.477600 2.726500 4.199090 15.735700 0.000005 -0.000001 65.421000 87.171100 -58.822600 8.984550 -0.406207 -0.000000 -2.418670 -2.937500 13.137100 16.377300 -0.000001 -0.000001 2.129870 0.160749 6.170400 6.456720 -0.000001 -0.000000 -12.985700 -9.154090 23.242800 12.994200 -0.242716 4.980390 -88.009100 -3.916920 -63.028800 5.348090 -0.000007 -0.000001 -57.396800 -54.419400 -106.566000 24.328600 0.000019 0.000005 0.899032 17.877300 -2.926170 22.291600 -0.000001 0.000005 43.560900 4.534290 16.029500 12.994500 -0.242716 -4.980390 88.012500 5.548630 -70.256700 -5.348130 -0.000001 -0.000004 -61.062800 10.912400 -7.944630 -24.328900 0.000322 -0.000009 1.759270 6.704240 -14.748600 -22.291500 -0.000108 -0.000004 6.369620 5.258870 1.197530 -2.192480 -6.469440 -0.000000 -175.852000 -9.963130 2.312420 39.081100 -0.000007 -0.000012 0.048453 -0.151739 17.709300 40.985400 -0.000006 -0.000013 2.932640 18.178600 -70.577100 11.754300 -0.000000 0.000003 -0.001002 0.183068 -9.150680 -2.192510 6.469440 -0.000001 172.377000 10.614300 -174.296000 -39.081100 -0.002282 -0.040193 0.000951 0.010552 12.728800 -40.985400 0.000008 0.000006 -8.268890 7.000470 -68.089100 -11.754300 -0.000006 -0.000006 -0.011727 0.283786 -5.040220
0.000000 0.000000 0.000000 0.000000 0.000000 -0.000000 2.805890 92.687300 1.629080 89.511300 2.753930 4.174160 15.735700 0.000005 -0.000001 65.801800 87.152000 -59.227600 8.984550 -0.406207 -0.000000 -2.370330 -2.914090 13.090300 16.377300 -0.000001 -0.000001 2.330890 0.233842 6.049700 6.456720 -0.000001 -0.000000 -13.037800 -9.138660 23.121200 12.994200 -0.242716 4.980390 -88.042600 -3.821070 -62.849100 5.348090 -0.000007 -0.000001 -57.442200 -54.527000 -106.642000 24.328600 0.000019 0.000005 0.904341 17.956600 -2.930870 22.291600 -0.000001 0.000005 43.400000 4.531650 16.073700 12.994500 -0.242716 -4.980390 88.023700 5.509550 -70.231200 -5.348130 -0.000001 -0.000004 -61.239700 11.026000 -7.568150 -24.328900 0.000322 -0.000009 1.745130 6.816810 -14.404700 -22.291500 -0.000108 -0.000004 6.425060 5.258090 1.218320 -2.192480 -6.469440 -0.000000 -175.939000 -9.886660 2.269160 39.081100 -0.000007 -0.000012 0.049418 -0.154821 17.702900 40.985400 -0.000006 -0.000013 2.949970 18.114000 -70.587900 11.754300 -0.000000 0.000003 -0.001115 0.184654 -9.086200 -2.192510 6.469440 -0.000001 172.300000 10.682300 -174.297000 -39.081100 -0.002282 -0.040193 0.000889 0.010870 12.677100 -40.985400 0.000008 0.000006 -8.261980 7.075920 -68.042600 -11.754300 -0.000006 -0.000006 -0.011651 0.283256 -5.061900
0.000000 0.000000 0.000000 0.000000 0.000000 -0.000000 2.838230 92.688000 1.600200 89.534600 2.750820 4.140650 15.735700 0.000005 -0.000001 66.793300 87.149900 -60.256200 8.984550 -0.406207 -0.000000 -2.333530 -2.820130 13.018500 16.377300 -0.000001 -0.000001 2.502440 0.328616 5.941900 6.456720 -0.000001 -0.000000 -13.072500 -9.087390 22.989600 12.994200 -0.242716 4.980390 -88.064500 -3.763870 -62.760800 5.348090 -0.000007 -0.000001 -57.763200 -54.588400 -106.955000 24.328600 0.000019 0.000005 0.911990 17.982100 -2.951530 22.291600 -0.000001 0.000005 43.439800 4.530760 16.088700 12.994500 -0.242716 -4.980390 88.011200 5.523540 -70.162500 -5.348130 -0.000001 -0.000004 -61.405700 11.052100 -7.116370 -24.328900 0.000322 -0.000009 1.781750 7.115340 -14.105500 -22.291500 -0.000108 -0.000004 6.317500 5.256720 1.254410 -2.192480 -6.469440 -0.000000 -175.993000 -9.896010 2.219200 39.081100 -0.000007 -0.000012 0.049702 -0.155656 17.708900 40.985400 -0.000006 -0.000013 2.976760 18.127900 -70.592600 11.754300 -0.000000 0.000003 -0.001007 0.183136 -9.147900 -2.192510 6.469440 -0.000001 172.289000 10.590000 -174.365000 -39.081100 -0.002282 -0.040193 0.001712 0.007187 12.720000 -40.985400 0.000008 0.000006 -8.249690 6.980610 -68.140500 -11.754300 -0.000006 -0.000006 -0.011766 0.284058 -5.029080
